<?xml version="1.0" encoding="utf-8"?>
<!-- Generator: Adobe Illustrator 25.4.1, SVG Export Plug-In . SVG Version: 6.00 Build 0)  -->
<svg version="1.1" id="Layer_1" xmlns="http://www.w3.org/2000/svg" xmlns:xlink="http://www.w3.org/1999/xlink" x="0px" y="0px"
	 viewBox="0 0 44 64.9" style="enable-background:new 0 0 44 64.9;" xml:space="preserve">
<style type="text/css">
	.st0{fill:#808080;}
	.st1{fill:#FFFFFF;}
</style>
<g>
	<g>
		<path class="st0" d="M21.3,62.7c-0.1-0.1-5.1-5.4-10.1-13C4.4,39.4,1,30.1,1,22C1,10.4,10.4,1,22,1c11.6,0,21,9.4,21,21
			c0,8.1-3.4,17.4-10.2,27.7c-5,7.6-10.1,12.9-10.1,13L22,63.4L21.3,62.7z"/>
		<path class="st1" d="M22,2c11,0,20,9,20,20c0,19-20,40-20,40S2,41,2,22C2,11,11,2,22,2 M22,0C9.9,0,0,9.9,0,22
			c0,8.3,3.5,17.8,10.3,28.2c5,7.7,10,12.9,10.2,13.1l1.4,1.5l1.4-1.5C24.3,62.5,44,41.6,44,22C44,9.9,34.1,0,22,0L22,0z"/>
	</g>
	<circle class="st1" cx="22" cy="22" r="14"/>
	<g>
		<path class="st0" d="M31,29.9h-4.4v-9.6c0-0.9,0.8-1.6,1.7-1.6c0.9,0,1.6,0.7,1.6,1.6c0,0,0,0,0,0h0v0.3c-0.5,0.2-0.8,0.7-0.8,1.3
			c0,0.7,1.2,2.3,1.4,2.5c0,0,0.1,0,0.1,0c0.2-0.3,1.4-1.8,1.4-2.5c0-0.6-0.3-1.1-0.8-1.3v-0.3h0c0,0,0,0,0,0c0-1.6-1.3-2.9-2.9-2.9
			s-2.9,1.3-2.9,2.9v2.1h-1c-0.1,0-0.1,0-0.2,0c-0.3,0-0.6,0.1-0.8,0.2c-0.7,0.3-1.2,1-1.2,1.8c0,0.1,0,0.1,0,0.2v0.5
			c-0.5,0.2-0.8,0.7-0.8,1.3c0,0.7,1.2,2.3,1.4,2.5c0,0,0.1,0,0.1,0c0.2-0.3,1.4-1.8,1.4-2.5c0-0.6-0.3-1.1-0.8-1.3v-0.5
			c0-0.6,0.5-1,1-1h1v6.2H13c-0.6,0-1,0.5-1,1s0.5,1,1,1H31c0.6,0,1-0.5,1-1S31.5,29.9,31,29.9z"/>
		<path class="st0" d="M17.2,14.5c0.3,0,0.6-0.3,0.6-0.6v-1.2c0-0.3-0.3-0.6-0.6-0.6c-0.3,0-0.6,0.3-0.6,0.6v1.2
			C16.6,14.2,16.9,14.5,17.2,14.5z"/>
		<path class="st0" d="M16.6,20.5v1.2c0,0.3,0.3,0.6,0.6,0.6c0.3,0,0.6-0.3,0.6-0.6v-1.2c0-0.3-0.3-0.6-0.6-0.6
			C16.9,19.9,16.6,20.2,16.6,20.5z"/>
		<path class="st0" d="M20,15.3l0.9-0.9c0.2-0.2,0.2-0.6,0-0.9s-0.6-0.2-0.9,0l-0.9,0.9c-0.2,0.2-0.2,0.6,0,0.9S19.8,15.5,20,15.3z"
			/>
		<path class="st0" d="M14.4,19.1L13.5,20c-0.2,0.2-0.2,0.6,0,0.9c0.2,0.2,0.6,0.2,0.9,0l0.9-0.9c0.2-0.2,0.2-0.6,0-0.9
			S14.7,18.9,14.4,19.1z"/>
		<path class="st0" d="M19.9,17.2c0,0.3,0.3,0.6,0.6,0.6h1.2c0.3,0,0.6-0.3,0.6-0.6c0-0.3-0.3-0.6-0.6-0.6h-1.2
			C20.2,16.6,19.9,16.9,19.9,17.2z"/>
		<path class="st0" d="M12.6,17.8h1.2c0.3,0,0.6-0.3,0.6-0.6c0-0.3-0.3-0.6-0.6-0.6h-1.2c-0.3,0-0.6,0.3-0.6,0.6
			C12,17.6,12.3,17.8,12.6,17.8z"/>
		<path class="st0" d="M19.1,19.1c-0.2,0.2-0.2,0.6,0,0.9l0.9,0.9c0.2,0.2,0.6,0.2,0.9,0c0.2-0.2,0.2-0.6,0-0.9L20,19.1
			C19.8,18.9,19.4,18.9,19.1,19.1z"/>
		<path class="st0" d="M14.4,15.3c0.2,0.2,0.6,0.2,0.9,0s0.2-0.6,0-0.9l-0.9-0.9c-0.2-0.2-0.6-0.2-0.9,0s-0.2,0.6,0,0.9L14.4,15.3z"
			/>
		<circle class="st0" cx="17.2" cy="17.2" r="1.9"/>
	</g>
</g>
</svg>
