<?xml version="1.0" encoding="utf-8"?>
<!-- Generator: Adobe Illustrator 25.4.1, SVG Export Plug-In . SVG Version: 6.00 Build 0)  -->
<svg version="1.1" id="Layer_1" xmlns="http://www.w3.org/2000/svg" xmlns:xlink="http://www.w3.org/1999/xlink" x="0px" y="0px"
	 viewBox="0 0 44 64.9" style="enable-background:new 0 0 44 64.9;" xml:space="preserve">
<style type="text/css">
	.st0{fill:#808080;}
	.st1{fill:#FFFFFF;}
	.st2{fill:none;stroke:#808080;stroke-linecap:round;stroke-linejoin:round;stroke-miterlimit:10;}
</style>
<g>
	<g>
		<path class="st0" d="M21.3,63.1c-0.1-0.1-5.1-5.4-10.1-13C4.4,39.9,1,30.5,1,22.4c0-11.6,9.4-21,21-21s21,9.4,21,21
			c0,8.1-3.4,17.4-10.2,27.7c-5,7.6-10.1,12.9-10.1,13L22,63.9L21.3,63.1z"/>
		<path class="st1" d="M22,2.4c11,0,20,9,20,20c0,19-20,40-20,40s-20-21-20-40C2,11.4,11,2.4,22,2.4 M22,0.4c-12.1,0-22,9.9-22,22
			c0,8.3,3.5,17.8,10.3,28.2c5,7.7,10,12.9,10.2,13.1l1.4,1.5l1.4-1.5C24.3,62.9,44,42.1,44,22.4C44,10.3,34.1,0.4,22,0.4L22,0.4z"
			/>
	</g>
	<circle class="st1" cx="22" cy="22.4" r="14"/>
	<g>
		<path class="st0" d="M31.2,27.8c-1,0-1.5,0.3-1.9,0.5c-0.3,0.2-0.6,0.3-1.1,0.3c-0.5,0-0.8-0.1-1.1-0.3c-0.4-0.2-1-0.5-1.9-0.5
			c-1,0-1.5,0.3-1.9,0.5c-0.3,0.2-0.6,0.3-1.1,0.3c-0.6,0-0.8-0.1-1.1-0.3c-0.4-0.2-1-0.5-1.9-0.5c-1,0-1.5,0.3-1.9,0.5
			c-0.4,0.2-0.6,0.3-1.1,0.3c-0.6,0-0.8-0.1-1.1-0.3c-0.4-0.2-0.9-0.5-1.9-0.5c-0.5,0-0.8,0.4-0.8,0.8c0,0.5,0.4,0.8,0.8,0.8
			c0.6,0,0.8,0.1,1.1,0.3c0.4,0.2,1,0.5,1.9,0.5c1,0,1.5-0.3,1.9-0.5c0.4-0.2,0.6-0.3,1.1-0.3c0.6,0,0.8,0.1,1.1,0.3
			c0.4,0.2,1,0.5,1.9,0.5c1,0,1.5-0.3,1.9-0.5c0.3-0.2,0.6-0.3,1.1-0.3c0.5,0,0.8,0.1,1.1,0.3c0.4,0.2,1,0.5,1.9,0.5
			c1,0,1.5-0.3,1.9-0.5c0.3-0.2,0.6-0.3,1.1-0.3c0.5,0,0.8-0.4,0.8-0.8C32,28.2,31.6,27.8,31.2,27.8z"/>
		<path class="st0" d="M31.2,24.4c-1,0-1.5,0.3-1.9,0.5c-0.3,0.2-0.6,0.3-1.1,0.3c-0.6,0-0.8-0.1-1.1-0.3c-0.4-0.2-1-0.5-1.9-0.5
			c-1,0-1.5,0.3-1.9,0.5c-0.3,0.2-0.6,0.3-1.1,0.3c-0.6,0-0.8-0.1-1.1-0.3c-0.4-0.2-1-0.5-1.9-0.5c-1,0-1.5,0.3-1.9,0.5
			c-0.3,0.2-0.6,0.3-1.1,0.3c-0.6,0-0.8-0.1-1.1-0.3c-0.4-0.2-1-0.5-1.9-0.5c-0.5,0-0.8,0.4-0.8,0.8s0.4,0.8,0.8,0.8
			c0.6,0,0.8,0.1,1.1,0.3c0.4,0.2,1,0.5,1.9,0.5c1,0,1.5-0.3,1.9-0.5c0.3-0.2,0.6-0.3,1.1-0.3s0.8,0.1,1.1,0.3
			c0.4,0.2,1,0.5,1.9,0.5c1,0,1.5-0.3,1.9-0.5c0.3-0.2,0.6-0.3,1.1-0.3c0.6,0,0.8,0.1,1.1,0.3c0.4,0.2,1,0.5,1.9,0.5
			c1,0,1.5-0.3,1.9-0.5c0.3-0.2,0.6-0.3,1.1-0.3c0.5,0,0.8-0.4,0.8-0.8S31.6,24.4,31.2,24.4z"/>
	</g>
	<g>
		<path class="st0" d="M22,12.5c0.3,0,0.6-0.3,0.6-0.6v-1.2c0-0.3-0.3-0.6-0.6-0.6s-0.6,0.3-0.6,0.6v1.2
			C21.4,12.3,21.7,12.5,22,12.5z"/>
		<path class="st0" d="M21.4,18.6v1.2c0,0.3,0.3,0.6,0.6,0.6s0.6-0.3,0.6-0.6v-1.2c0-0.3-0.3-0.6-0.6-0.6S21.4,18.2,21.4,18.6z"/>
		<path class="st0" d="M24.8,13.3l0.9-0.9c0.2-0.2,0.2-0.6,0-0.9s-0.6-0.2-0.9,0l-0.9,0.9c-0.2,0.2-0.2,0.6,0,0.9
			C24.2,13.6,24.6,13.6,24.8,13.3z"/>
		<path class="st0" d="M19.2,17.2L18.3,18c-0.2,0.2-0.2,0.6,0,0.9c0.2,0.2,0.6,0.2,0.9,0l0.9-0.9c0.2-0.2,0.2-0.6,0-0.9
			S19.4,16.9,19.2,17.2z"/>
		<path class="st0" d="M24.7,15.2c0,0.3,0.3,0.6,0.6,0.6h1.2c0.3,0,0.6-0.3,0.6-0.6s-0.3-0.6-0.6-0.6h-1.2
			C25,14.6,24.7,14.9,24.7,15.2z"/>
		<path class="st0" d="M17.4,15.9h1.2c0.3,0,0.6-0.3,0.6-0.6s-0.3-0.6-0.6-0.6h-1.2c-0.3,0-0.6,0.3-0.6,0.6S17.1,15.9,17.4,15.9z"/>
		<path class="st0" d="M23.9,17.2c-0.2,0.2-0.2,0.6,0,0.9l0.9,0.9c0.2,0.2,0.6,0.2,0.9,0c0.2-0.2,0.2-0.6,0-0.9l-0.9-0.9
			C24.6,16.9,24.2,16.9,23.9,17.2z"/>
		<path class="st0" d="M19.2,13.3c0.2,0.2,0.6,0.2,0.9,0c0.2-0.2,0.2-0.6,0-0.9l-0.9-0.9c-0.2-0.2-0.6-0.2-0.9,0s-0.2,0.6,0,0.9
			L19.2,13.3z"/>
		<circle class="st0" cx="22" cy="15.2" r="1.9"/>
	</g>
	<line class="st2" x1="12" y1="22.4" x2="32" y2="22.4"/>
</g>
</svg>
