<?xml version="1.0" encoding="utf-8"?>
<!-- Generator: Adobe Illustrator 25.4.1, SVG Export Plug-In . SVG Version: 6.00 Build 0)  -->
<svg version="1.1" id="Layer_1" xmlns="http://www.w3.org/2000/svg" xmlns:xlink="http://www.w3.org/1999/xlink" x="0px" y="0px"
	 viewBox="0 0 44 64.9" style="enable-background:new 0 0 44 64.9;" xml:space="preserve">
<style type="text/css">
	.st0{fill:#F2645A;}
	.st1{fill:#FFFFFF;}
</style>
<g>
	<g>
		<path class="st0" d="M21.3,63.1c-0.1-0.1-5.1-5.4-10.1-13C4.4,39.9,1,30.5,1,22.5c0-11.6,9.4-21,21-21c11.6,0,21,9.4,21,21
			c0,8.1-3.4,17.4-10.2,27.7c-5,7.6-10.1,12.9-10.1,13L22,63.9L21.3,63.1z"/>
		<path class="st1" d="M22,2.5c11,0,20,9,20,20c0,19-20,40-20,40s-20-21-20-40C2,11.4,11,2.5,22,2.5 M22,0.5c-12.1,0-22,9.9-22,22
			c0,8.3,3.5,17.8,10.3,28.2c5,7.7,10,12.9,10.2,13.1l1.4,1.5l1.4-1.5C24.3,63,44,42.1,44,22.5C44,10.3,34.1,0.5,22,0.5L22,0.5z"/>
	</g>
	<circle class="st1" cx="22" cy="22.5" r="14"/>
	<g>
		<path class="st0" d="M31,30.4h-4.4v-9.6c0-0.9,0.8-1.6,1.7-1.6c0.9,0,1.6,0.7,1.6,1.6c0,0,0,0,0,0h0v0.3c-0.5,0.2-0.8,0.7-0.8,1.3
			c0,0.7,1.2,2.3,1.4,2.5c0,0,0.1,0,0.1,0c0.2-0.3,1.4-1.8,1.4-2.5c0-0.6-0.3-1.1-0.8-1.3v-0.3h0c0,0,0,0,0,0c0-1.6-1.3-2.9-2.9-2.9
			s-2.9,1.3-2.9,2.9v2.1h-1c-0.1,0-0.1,0-0.2,0c-0.3,0-0.6,0.1-0.8,0.2c-0.7,0.3-1.2,1-1.2,1.8c0,0.1,0,0.1,0,0.2v0.5
			c-0.5,0.2-0.8,0.7-0.8,1.3c0,0.7,1.2,2.3,1.4,2.5c0,0,0.1,0,0.1,0c0.2-0.3,1.4-1.8,1.4-2.5c0-0.6-0.3-1.1-0.8-1.3v-0.5
			c0-0.6,0.5-1,1-1h1v6.2H13c-0.6,0-1,0.5-1,1s0.5,1,1,1H31c0.6,0,1-0.5,1-1S31.5,30.4,31,30.4z"/>
		<path class="st0" d="M17.2,15c0.3,0,0.6-0.3,0.6-0.6v-1.2c0-0.3-0.3-0.6-0.6-0.6c-0.3,0-0.6,0.3-0.6,0.6v1.2
			C16.6,14.7,16.9,15,17.2,15z"/>
		<path class="st0" d="M16.6,21v1.2c0,0.3,0.3,0.6,0.6,0.6c0.3,0,0.6-0.3,0.6-0.6V21c0-0.3-0.3-0.6-0.6-0.6
			C16.9,20.4,16.6,20.6,16.6,21z"/>
		<path class="st0" d="M20,15.7l0.9-0.9c0.2-0.2,0.2-0.6,0-0.9c-0.2-0.2-0.6-0.2-0.9,0l-0.9,0.9c-0.2,0.2-0.2,0.6,0,0.9
			S19.8,16,20,15.7z"/>
		<path class="st0" d="M14.4,19.6l-0.9,0.9c-0.2,0.2-0.2,0.6,0,0.9s0.6,0.2,0.9,0l0.9-0.9c0.2-0.2,0.2-0.6,0-0.9
			S14.7,19.3,14.4,19.6z"/>
		<path class="st0" d="M19.9,17.7c0,0.3,0.3,0.6,0.6,0.6h1.2c0.3,0,0.6-0.3,0.6-0.6c0-0.3-0.3-0.6-0.6-0.6h-1.2
			C20.2,17,19.9,17.3,19.9,17.7z"/>
		<path class="st0" d="M12.6,18.3h1.2c0.3,0,0.6-0.3,0.6-0.6c0-0.3-0.3-0.6-0.6-0.6h-1.2c-0.3,0-0.6,0.3-0.6,0.6
			C12,18,12.3,18.3,12.6,18.3z"/>
		<path class="st0" d="M19.1,19.6c-0.2,0.2-0.2,0.6,0,0.9l0.9,0.9c0.2,0.2,0.6,0.2,0.9,0s0.2-0.6,0-0.9L20,19.6
			C19.8,19.3,19.4,19.3,19.1,19.6z"/>
		<path class="st0" d="M14.4,15.7c0.2,0.2,0.6,0.2,0.9,0s0.2-0.6,0-0.9L14.4,14c-0.2-0.2-0.6-0.2-0.9,0c-0.2,0.2-0.2,0.6,0,0.9
			L14.4,15.7z"/>
		<circle class="st0" cx="17.2" cy="17.7" r="1.9"/>
	</g>
</g>
</svg>
