<?xml version="1.0" encoding="utf-8"?>
<!-- Generator: Adobe Illustrator 25.4.1, SVG Export Plug-In . SVG Version: 6.00 Build 0)  -->
<svg version="1.1" id="Layer_1" xmlns="http://www.w3.org/2000/svg" xmlns:xlink="http://www.w3.org/1999/xlink" x="0px" y="0px"
	 viewBox="0 0 44 64.9" style="enable-background:new 0 0 44 64.9;" xml:space="preserve">
<style type="text/css">
	.st0{fill:#808080;}
	.st1{fill:#FFFFFF;}
</style>
<g>
	<g>
		<path class="st0" d="M21.3,63.1c-0.1-0.1-5.1-5.4-10.1-13C4.4,39.9,1,30.5,1,22.4c0-11.6,9.4-21,21-21c11.6,0,21,9.4,21,21
			c0,8.1-3.4,17.4-10.2,27.7c-5,7.6-10.1,12.9-10.1,13L22,63.9L21.3,63.1z"/>
		<path class="st1" d="M22,2.4c11,0,20,9,20,20c0,19-20,40-20,40s-20-21-20-40C2,11.4,11,2.4,22,2.4 M22,0.4c-12.1,0-22,9.9-22,22
			c0,8.3,3.5,17.8,10.3,28.2c5,7.7,10,12.9,10.2,13.1l1.4,1.5l1.4-1.5C24.3,62.9,44,42.1,44,22.4C44,10.3,34.1,0.4,22,0.4L22,0.4z"
			/>
	</g>
	<circle class="st1" cx="22" cy="22.4" r="14"/>
	<path class="st0" d="M31.8,22.6L31.8,22.6c-0.4-0.6-1.1-0.8-1.7-0.5l-1.9,1.1c0.2-1.3-0.1-2.6-0.7-3.8c0,0,0,0,0-0.1l0,0l-3.6-6.3
		c-0.3-0.6-1.1-0.8-1.7-0.4l0,0c-0.6,0.3-0.8,1.1-0.4,1.7l1.1,1.9c-1.3-0.2-2.6,0.1-3.9,0.8l0,0l-6.2,3.6c-0.6,0.3-0.8,1.1-0.4,1.7
		l0,0c0.3,0.6,1.1,0.8,1.7,0.4l1.9-1.1c-0.2,1.3,0.1,2.6,0.8,3.8c0,0,0,0,0,0l0,0l3.6,6.3c0.3,0.6,1.1,0.8,1.7,0.4l0,0
		c0.6-0.3,0.8-1.1,0.4-1.7l-1.1-1.9c1.2,0.2,2.5-0.1,3.7-0.7c0,0,0.1,0,0.1-0.1l0,0l6.3-3.6C32,23.9,32.2,23.2,31.8,22.6z
		 M18.8,24.3C18.8,24.3,18.8,24.3,18.8,24.3c-1-1.8-0.4-4.1,1.3-5.1c0,0,0,0,0,0c0,0,0,0,0,0c1.8-1,4-0.4,5.1,1.4c0,0,0,0,0,0
		c0,0,0,0,0,0c1,1.8,0.4,4.1-1.4,5.1c0,0,0,0,0,0C22.1,26.7,19.8,26.1,18.8,24.3z"/>
</g>
</svg>
