<?xml version="1.0" encoding="utf-8"?>
<!-- Generator: Adobe Illustrator 25.4.1, SVG Export Plug-In . SVG Version: 6.00 Build 0)  -->
<svg version="1.1" id="Layer_1" xmlns="http://www.w3.org/2000/svg" xmlns:xlink="http://www.w3.org/1999/xlink" x="0px" y="0px"
	 viewBox="0 0 44 64.9" style="enable-background:new 0 0 44 64.9;" xml:space="preserve">
<style type="text/css">
	.st0{fill:#F2645A;}
	.st1{fill:#FFFFFF;}
</style>
<g>
	<g>
		<path class="st0" d="M21.3,63.1c-0.1-0.1-5.1-5.4-10.1-13C4.4,39.9,1,30.5,1,22.5c0-11.6,9.4-21,21-21c11.6,0,21,9.4,21,21
			c0,8.1-3.4,17.4-10.2,27.7c-5,7.6-10.1,12.9-10.1,13L22,63.9L21.3,63.1z"/>
		<path class="st1" d="M22,2.5c11,0,20,9,20,20c0,19-20,40-20,40s-20-21-20-40C2,11.4,11,2.5,22,2.5 M22,0.5c-12.1,0-22,9.9-22,22
			c0,8.3,3.5,17.8,10.3,28.2c5,7.7,10,12.9,10.2,13.1l1.4,1.5l1.4-1.5C24.3,63,44,42.1,44,22.5C44,10.3,34.1,0.5,22,0.5L22,0.5z"/>
	</g>
	<circle class="st1" cx="22" cy="22.5" r="14"/>
	<g>
		<path class="st0" d="M31.9,17.5l-6.1-5c0,0-0.1,0-0.1,0l-6.1,5c0,0-0.1,0.1-0.1,0.2V25c0.6,0.1,1,0.3,1.4,0.5
			c0.3,0.2,0.6,0.3,1.1,0.3c0.6,0,0.8-0.1,1.1-0.3c0.4-0.2,1-0.5,1.9-0.5c1,0,1.5,0.3,1.9,0.5c0.4,0.2,0.6,0.3,1.1,0.3
			c0.6,0,0.8-0.1,1.1-0.3c0.4-0.2,0.9-0.5,1.9-0.5c0.3,0,0.6,0,0.8,0.1v-7.4C32,17.5,32,17.5,31.9,17.5z"/>
		<path class="st0" d="M31.2,30c-1,0-1.5,0.3-1.9,0.5c-0.3,0.2-0.6,0.3-1.1,0.3c-0.5,0-0.8-0.1-1.1-0.3c-0.4-0.2-1-0.5-1.9-0.5
			c-1,0-1.5,0.3-1.9,0.5c-0.3,0.2-0.6,0.3-1.1,0.3c-0.6,0-0.8-0.1-1.1-0.3c-0.4-0.2-1-0.5-1.9-0.5c-1,0-1.5,0.3-1.9,0.5
			c-0.4,0.2-0.6,0.3-1.1,0.3c-0.6,0-0.8-0.1-1.1-0.3c-0.4-0.2-0.9-0.5-1.9-0.5c-0.5,0-0.8,0.4-0.8,0.8c0,0.5,0.4,0.8,0.8,0.8
			c0.6,0,0.8,0.1,1.1,0.3c0.4,0.2,1,0.5,1.9,0.5c1,0,1.5-0.3,1.9-0.5c0.4-0.2,0.6-0.3,1.1-0.3c0.6,0,0.8,0.1,1.1,0.3
			c0.4,0.2,1,0.5,1.9,0.5c1,0,1.5-0.3,1.9-0.5c0.3-0.2,0.6-0.3,1.1-0.3c0.5,0,0.8,0.1,1.1,0.3c0.4,0.2,1,0.5,1.9,0.5
			c1,0,1.5-0.3,1.9-0.5c0.3-0.2,0.6-0.3,1.1-0.3c0.5,0,0.8-0.4,0.8-0.8C32,30.3,31.6,30,31.2,30z"/>
		<path class="st0" d="M31.2,26.6c-1,0-1.5,0.3-1.9,0.5c-0.3,0.2-0.6,0.3-1.1,0.3c-0.6,0-0.8-0.1-1.1-0.3c-0.4-0.2-1-0.5-1.9-0.5
			c-1,0-1.5,0.3-1.9,0.5c-0.3,0.2-0.6,0.3-1.1,0.3c-0.6,0-0.8-0.1-1.1-0.3c-0.4-0.2-1-0.5-1.9-0.5c-1,0-1.5,0.3-1.9,0.5
			c-0.3,0.2-0.6,0.3-1.1,0.3c-0.6,0-0.8-0.1-1.1-0.3c-0.4-0.2-1-0.5-1.9-0.5c-0.5,0-0.8,0.4-0.8,0.8s0.4,0.8,0.8,0.8
			c0.6,0,0.8,0.1,1.1,0.3c0.4,0.2,1,0.5,1.9,0.5c1,0,1.5-0.3,1.9-0.5c0.3-0.2,0.6-0.3,1.1-0.3s0.8,0.1,1.1,0.3
			c0.4,0.2,1,0.5,1.9,0.5c1,0,1.5-0.3,1.9-0.5c0.3-0.2,0.6-0.3,1.1-0.3c0.6,0,0.8,0.1,1.1,0.3c0.4,0.2,1,0.5,1.9,0.5
			c1,0,1.5-0.3,1.9-0.5c0.3-0.2,0.6-0.3,1.1-0.3c0.5,0,0.8-0.4,0.8-0.8S31.6,26.6,31.2,26.6z"/>
	</g>
</g>
</svg>
