<?xml version="1.0" encoding="UTF-8"?>
<svg width="44px" height="66px" viewBox="0 0 44 66" version="1.1" xmlns="http://www.w3.org/2000/svg" xmlns:xlink="http://www.w3.org/1999/xlink">
    <title>marker_cholera</title>
    <g id="Page-1" stroke="none" stroke-width="1" fill="none" fill-rule="evenodd">
        <g id="marker_cholera" transform="translate(0.000000, 0.400000)" fill-rule="nonzero">
            <g id="Group">
                <path d="M21.3,62.7 C21.2,62.6 16.2,57.3 11.2,49.7 C4.4,39.5 1,30.1 1,22 C1,10.4 10.4,1 22,1 C33.6,1 43,10.4 43,22 C43,30.1 39.6,39.4 32.8,49.7 C27.8,57.3 22.7,62.6 22.7,62.7 L22,63.5 L21.3,62.7 Z" id="Path" fill="#1BB580"></path>
                <path d="M22,2 C33,2 42,11 42,22 C42,41 22,62 22,62 C22,62 2,41 2,22 C2,11 11,2 22,2 M22,1.44328993e-15 C9.9,1.44328993e-15 0,9.9 0,22 C0,30.3 3.5,39.8 10.3,50.2 C15.3,57.9 20.3,63.1 20.5,63.3 L21.9,64.8 L23.3,63.3 C24.3,62.5 44,41.7 44,22 C44,9.9 34.1,1.44328993e-15 22,1.44328993e-15 L22,1.44328993e-15 Z" id="Shape" fill="#FFFFFF"></path>
            </g>
            <circle id="Oval" fill="#FFFFFF" cx="22" cy="22" r="14"></circle>
        </g>
    </g>
</svg>