<?xml version="1.0" encoding="utf-8"?>
<!-- Generator: Adobe Illustrator 25.4.1, SVG Export Plug-In . SVG Version: 6.00 Build 0)  -->
<svg version="1.1" id="Layer_1" xmlns="http://www.w3.org/2000/svg" xmlns:xlink="http://www.w3.org/1999/xlink" x="0px" y="0px"
	 viewBox="0 0 44 64.9" style="enable-background:new 0 0 44 64.9;" xml:space="preserve">
<style type="text/css">
	.st0{fill:#808080;}
	.st1{fill:#FFFFFF;}
</style>
<g>
	<g>
		<path class="st0" d="M21.3,63.1c-0.1-0.1-5.1-5.4-10.1-13C4.4,39.9,1,30.5,1,22.4c0-11.6,9.4-21,21-21s21,9.4,21,21
			c0,8.1-3.4,17.4-10.2,27.7c-5,7.6-10.1,12.9-10.1,13L22,63.9L21.3,63.1z"/>
		<path class="st1" d="M22,2.4c11,0,20,9,20,20c0,19-20,40-20,40s-20-21-20-40C2,11.4,11,2.4,22,2.4 M22,0.4c-12.1,0-22,9.9-22,22
			c0,8.3,3.5,17.8,10.3,28.2c5,7.7,10,12.9,10.2,13.1l1.4,1.5l1.4-1.5C24.3,62.9,44,42.1,44,22.4C44,10.3,34.1,0.4,22,0.4L22,0.4z"
			/>
	</g>
	<circle class="st1" cx="22" cy="22.4" r="14"/>
	<g>
		<path class="st0" d="M15.9,24.9c0,1,0.4,1.9,1.1,2.7c1.5,1.5,3.8,1.5,5.3,0l4.7-4.7c1.5-1.5,1.5-3.8,0-5.3
			c-0.7-0.7-1.7-1.1-2.7-1.1c-1,0-1.9,0.4-2.7,1.1L17,22.3C16.2,23,15.9,23.9,15.9,24.9z M21.4,20.4c0.6,0,1,0.5,1,1
			c0,0.6-0.5,1-1,1s-1-0.5-1-1C20.3,20.8,20.8,20.4,21.4,20.4z M19.9,23.7c0.9,0,1.7,0.7,1.7,1.7S20.8,27,19.9,27s-1.7-0.7-1.7-1.7
			S19,23.7,19.9,23.7z"/>
		<path class="st0" d="M31.2,19.1l-1.1,0c0-0.2-0.1-0.4-0.2-0.6c0,0,0-0.1,0-0.1c-0.1-0.2-0.1-0.3-0.2-0.5c0,0,0-0.1-0.1-0.1
			c-0.1-0.2-0.2-0.3-0.3-0.5c0,0,0,0,0-0.1c-0.1-0.2-0.2-0.4-0.4-0.5l0.7-0.7c0.3-0.3,0.3-0.9,0-1.2c-0.3-0.3-0.9-0.3-1.2,0
			l-0.7,0.7c-0.7-0.5-1.6-0.9-2.4-1c0,0,0,0,0,0v-1.2c0-0.5-0.4-0.8-0.8-0.8s-0.8,0.4-0.8,0.8v1.2c0,0,0,0,0,0c-0.4,0-0.7,0.1-1,0.2
			c0,0,0,0,0,0c-0.2,0.1-0.3,0.1-0.5,0.2c-0.2,0.1-0.3,0.1-0.5,0.2l-1.1-1.1c-0.3-0.3-0.9-0.3-1.2,0c-0.3,0.3-0.3,0.9,0,1.2l0.9,0.9
			c0,0,0,0-0.1,0l-1.5,1.5L17.2,16c-0.3-0.3-0.9-0.3-1.2,0c-0.3,0.3-0.3,0.9,0,1.2l1.6,1.6l-1.7,1.7l-1.1-1.1
			c-0.3-0.3-0.9-0.3-1.2,0c-0.3,0.3-0.3,0.9,0,1.2l1.2,1.2c0,0,0,0,0,0c-0.4,0.6-0.7,1.2-0.8,1.9c0,0,0,0,0,0h-1.1
			c-0.5,0-0.8,0.4-0.8,0.8s0.4,0.8,0.8,0.8h1c0,0,0,0,0,0c0,0.1,0,0.2,0,0.4c0,0,0,0.1,0,0.1c0.1,0.4,0.1,0.7,0.3,1.1c0,0,0,0,0,0
			c0.2,0.5,0.4,1,0.8,1.4l-0.6,0.6c-0.3,0.3-0.3,0.9,0,1.2c0.2,0.2,0.4,0.2,0.6,0.2c0.2,0,0.4-0.1,0.6-0.2l0.6-0.6
			c0.2,0.2,0.4,0.3,0.7,0.4c0,0,0,0,0,0c0.1,0.1,0.2,0.1,0.3,0.2c0,0,0.1,0,0.1,0.1c0.1,0,0.2,0.1,0.3,0.1c0.1,0.1,0.3,0.1,0.4,0.1
			c0.1,0,0.1,0,0.2,0.1c0.1,0,0.2,0,0.3,0.1c0.1,0,0.1,0,0.2,0c0.1,0,0.2,0,0.4,0.1c0,0,0.1,0,0.1,0c0,0,0,0,0,0v0.9
			c0,0.5,0.4,0.8,0.8,0.8s0.8-0.4,0.8-0.8v-0.9c0,0,0,0,0,0c0.7-0.1,1.4-0.4,2-0.8l1.1,1.1c0.2,0.2,0.4,0.2,0.6,0.2s0.4-0.1,0.6-0.2
			c0.3-0.3,0.3-0.9,0-1.2l-1-1l1.7-1.7l1.4,1.4c0.2,0.2,0.4,0.2,0.6,0.2c0.2,0,0.4-0.1,0.6-0.2c0.3-0.3,0.3-0.9,0-1.2L27,25.8
			l1.5-1.5c0,0,0,0,0-0.1l0.8,0.8c0.2,0.2,0.4,0.2,0.6,0.2s0.4-0.1,0.6-0.2c0.3-0.3,0.3-0.9,0-1.2l-1-1c0.3-0.5,0.5-1,0.6-1.6
			c0,0,0,0,0,0c0-0.2,0.1-0.4,0.1-0.6c0,0,0,0,0,0l1,0c0,0,0,0,0,0c0.5,0,0.8-0.4,0.8-0.8C32,19.5,31.6,19.1,31.2,19.1z M21.1,17
			C21.1,17,21.1,17,21.1,17c0.5-0.5,1-0.8,1.5-1c0,0,0,0,0,0c0.4-0.1,0.7-0.2,1.1-0.3c0.1,0,0.3,0,0.4,0c0,0,0,0,0,0
			c0.1,0,0.3,0,0.4,0c0,0,0,0,0,0c0.1,0,0.3,0,0.4,0c0,0,0,0,0,0c0.1,0,0.3,0,0.4,0.1c0.3,0.1,0.5,0.1,0.8,0.2c0,0,0,0,0,0
			c0.1,0,0.2,0.1,0.3,0.2c0,0,0.1,0,0.1,0.1c0.1,0,0.2,0.1,0.2,0.1c0.1,0.1,0.2,0.2,0.4,0.3c0.1,0.1,0.2,0.2,0.3,0.3
			c0.1,0.1,0.2,0.2,0.3,0.3c0.1,0.1,0.2,0.2,0.2,0.3c0.1,0.1,0.2,0.2,0.2,0.4c0,0,0,0,0,0c0.1,0.1,0.1,0.2,0.2,0.4c0,0,0,0,0,0
			c0.1,0.1,0.1,0.3,0.2,0.4c0,0,0,0,0,0c0,0.1,0.1,0.3,0.1,0.4c0.1,0.3,0.1,0.5,0.1,0.8c0,0,0,0,0,0c0,0.1,0,0.3,0,0.4c0,0,0,0,0,0
			c0,0.1,0,0.3,0,0.4c0,0,0,0,0,0c0,0.2-0.1,0.4-0.1,0.6c0,0,0,0,0,0.1c-0.1,0.2-0.1,0.4-0.2,0.6c-0.2,0.5-0.5,1-0.9,1.4
			c0,0,0,0,0,0.1l-3.3,3.3l-1.1,1.1l-0.3,0.3c-0.1,0.1-0.3,0.3-0.4,0.4c0,0,0,0-0.1,0c-0.2,0.1-0.3,0.2-0.5,0.3c0,0,0,0,0,0
			c-0.4,0.2-0.7,0.4-1.1,0.5c-0.2,0-0.3,0.1-0.5,0.1c0,0,0,0-0.1,0c-0.2,0-0.4,0-0.5,0c-0.2,0-0.4,0-0.5,0c0,0,0,0,0,0
			c-0.2,0-0.4-0.1-0.5-0.1c0,0,0,0,0,0c-0.5-0.1-1.1-0.4-1.5-0.7c-0.1-0.1-0.2-0.1-0.3-0.2c-0.1-0.1-0.2-0.2-0.3-0.3
			c-0.2-0.2-0.4-0.5-0.6-0.7c-0.1-0.2-0.2-0.3-0.3-0.5c0,0,0-0.1-0.1-0.1c-0.1-0.1-0.1-0.2-0.2-0.4c0,0,0-0.1,0-0.1
			c0-0.1-0.1-0.3-0.1-0.4c0,0,0-0.1,0-0.1c0-0.2-0.1-0.3-0.1-0.5c-0.1-0.6,0-1.1,0.2-1.7c0.1-0.4,0.2-0.7,0.4-1c0,0,0,0,0,0
			c0.1-0.2,0.2-0.3,0.3-0.5c0,0,0,0,0-0.1c0.1-0.2,0.2-0.3,0.4-0.4l0.3-0.3l1.7-1.7l1.2-1.2L21.1,17z"/>
	</g>
</g>
</svg>
